{"title":"The Pleasure Drivers 2006 DVDrip English Klam","uid":6830830,"size":1616365377,"categoryP":"video","categoryS":"movies","magnet":"?xt=urn:btih:5156730b60356d1d7eac804c6b5ef5aff3ab7765&amp;dn=The+Pleasure+Drivers+2006+DVDrip+English+Klam&amp;tr=udp%3A%2F%2Ftracker.openbittorrent.com%3A80&amp;tr=udp%3A%2F%2Fopen.demonii.com%3A1337&amp;tr=udp%3A%2F%2Ftracker.coppersurfer.tk%3A6969&amp;tr=udp%3A%2F%2Fexodus.desync.com%3A6969","seeders":2,"leechers":0,"uploader":"Klambake","files":-1,"time":1321871711,"description":"With: Lauren Holly, Lacey Chabert and Billy Zane\n\nDeze misdaadthriller speelt zich af in de gevaarlijke achterbuurten van Los Angeles. De film bevat drie afzonderlijke verhaallijnen, waarin de levens van verschillende karakters centraal staan. Daphne is een ex-verslaafde in geldnood. Ze besluit daarom Casey, de knappe woordvoerder van een rijke en machtige sekte, te ontvoeren. Maar daar krijgt ze spijt van... Psychologieleraar Bill Plummer is geobsedeerd door het 'lustprincipe' van Freud. Zijn leven neemt een interessante wending als hij erachter komt dat zijn vrouw vreemdgaat met een andere vrouw. Daarnaast volgen we een wrede lesbische vrouw, Marcy, die alles op alles zet om de kidnapper van Casey te vinden. Het verhaal beweegt zich heen en weer tussen deze drie verschillende werelden, waarvan de karakters, zonder het te weten, sterk met elkaar zijn verbonden. In een spannende climax vol actie komen ze uiteindelijk bij elkaar.\n\n&quot;The Pleasure Drivers&quot; lays out three separate interconnected stories involving an adulterous therapist... \n\n------------------ Dutch Friends ------------------\nYou can find my Friends at: http://www.Film-Test.nl \n------ They got my dutch subs ----- and more ------\n\nGeneral:\n\nComplete name                    : The Pleasure Drivers\\The Pleasure Drivers.avi\nFormat                           : AVI\nFormat/Info                      : Audio Video Interleave\nFile size                        : 1.50 GiB\nDuration                         : 1h 34mn\nOverall bit rate                 : 2 277 Kbps\n\nVideo:\n\nFormat                           : MPEG-4 Visual\nFormat profile                   : Simple@L3\nFormat settings, BVOP            : No\nFormat settings, QPel            : No\nFormat settings, GMC             : No warppoints\nFormat settings, Matrix          : Default (H.263)\nCodec ID                         : XVID\nCodec ID/Hint                    : XviD\nDuration                         : 1h 34mn\nBit rate                         : 1 818 Kbps\nWidth                            : 720 pixels\nHeight                           : 304 pixels\nDisplay aspect ratio             : 2.35:1\nFrame rate                       : 25.000 fps\nColor space                      : YUV\nChroma subsampling               : 4:2:0\nBit depth                        : 8 bits\nScan type                        : Progressive\nCompression mode                 : Lossy\nBits/(Pixel*Frame)               : 0.332\nStream size                      : 1.20 GiB (80%)\nWriting library                  : XviD 1.1.2 (UTC 2006-11-01)\n\nAudio:\n\nFormat                           : AC-3\nFormat/Info                      : Audio Coding 3\nMode extension                   : CM (complete main)\nCodec ID                         : 2000\nDuration                         : 1h 34mn\nBit rate mode                    : Constant\nBit rate                         : 448 Kbps\nChannel(s)                       : 6 channels\nChannel positions                : Front: L C R, Side: L R, LFE\nSampling rate                    : 48.0 KHz\nBit depth                        : 16 bits\nCompression mode                 : Lossy\nStream size                      : 303 MiB (20%)\nAlignment                        : Aligned on interleaves\nInterleave, duration             : 32 ms (0.80 video frame)\n","torrent":{"xt":"urn:btih:5156730b60356d1d7eac804c6b5ef5aff3ab7765","amp;dn":"The+Pleasure+Drivers+2006+DVDrip+English+Klam","amp;tr":["udp%3A%2F%2Ftracker.openbittorrent.com%3A80","udp%3A%2F%2Fopen.demonii.com%3A1337","udp%3A%2F%2Ftracker.coppersurfer.tk%3A6969","udp%3A%2F%2Fexodus.desync.com%3A6969"],"infoHash":"5156730b60356d1d7eac804c6b5ef5aff3ab7765","infoHashBuffer":{"type":"Buffer","data":[81,86,115,11,96,53,109,29,126,172,128,76,107,94,245,175,243,171,119,101]},"announce":[],"urlList":[]}}